<?xml version="1.0" encoding="UTF-8" standalone="no"?>
<!-- Generator: Adobe Illustrator 18.0.0, SVG Export Plug-In . SVG Version: 6.00 Build 0)  -->

<svg
   version="1.1"
   id="Capa_1"
   x="0px"
   y="0px"
   viewBox="0 0 338.203 338.203"
   style="enable-background:new 0 0 338.203 338.203;"
   xml:space="preserve"
   sodipodi:docname="speed.svg"
   inkscape:version="1.1.1 (3bf5ae0d25, 2021-09-20)"
   xmlns:inkscape="http://www.inkscape.org/namespaces/inkscape"
   xmlns:sodipodi="http://sodipodi.sourceforge.net/DTD/sodipodi-0.dtd"
   xmlns="http://www.w3.org/2000/svg"
   xmlns:svg="http://www.w3.org/2000/svg"><defs
   id="defs65" /><sodipodi:namedview
   id="namedview63"
   pagecolor="#ffffff"
   bordercolor="#666666"
   borderopacity="1.0"
   inkscape:pageshadow="2"
   inkscape:pageopacity="0.0"
   inkscape:pagecheckerboard="0"
   showgrid="false"
   inkscape:zoom="2.3713568"
   inkscape:cx="169.31235"
   inkscape:cy="135.57639"
   inkscape:window-width="1920"
   inkscape:window-height="991"
   inkscape:window-x="-9"
   inkscape:window-y="-9"
   inkscape:window-maximized="1"
   inkscape:current-layer="Capa_1" />
<g
   id="g30"
   transform="matrix(0.98877809,0,0,0.98877809,1.8971489,1.8971489)"
   style="fill:#ff7f2a">
	<path
   d="M 169.102,0 C 75.858,0 0,75.858 0,169.102 c 0,93.244 75.858,169.102 169.102,169.102 93.244,0 169.102,-75.858 169.102,-169.102 C 338.204,75.858 262.345,0 169.102,0 Z m 0,308.203 C 92.4,308.203 30,245.803 30,169.102 30,92.401 92.4,30 169.102,30 c 76.702,0 139.102,62.4 139.102,139.102 0,76.702 -62.401,139.101 -139.102,139.101 z"
   id="path2"
   style="fill:#ff7f2a" />
	<path
   d="m 170.445,148.139 c -9.012,-7.582 -36.24,-28.066 -58.86,-44.921 -1.99,-1.482 -4.766,-1.282 -6.523,0.475 -1.755,1.755 -1.956,4.532 -0.473,6.522 16.859,22.623 37.345,49.852 44.921,58.856 0.232,4.786 2.154,9.507 5.811,13.162 7.811,7.811 20.475,7.811 28.285,0 7.811,-7.809 7.811,-20.473 0,-28.283 -3.656,-3.655 -8.374,-5.577 -13.161,-5.811 z"
   id="path4"
   style="fill:#ff7f2a" />
	<path
   d="m 54.777,217.863 c 1.424,3.295 3.014,6.569 4.726,9.733 l 16.713,-9.034 c -1.447,-2.681 -2.795,-5.454 -4.002,-8.244 z"
   id="path6"
   style="fill:#ff7f2a" />
	<path
   d="m 68.246,95.465 15.381,11.154 c 1.789,-2.466 3.707,-4.883 5.701,-7.183 L 74.975,86.987 c -2.354,2.715 -4.62,5.568 -6.729,8.478 z"
   id="path8"
   style="fill:#ff7f2a" />
	<path
   d="m 120.057,75.057 -8.844,-16.818 c -3.172,1.668 -6.318,3.502 -9.348,5.45 l 10.275,15.983 c 2.565,-1.651 5.231,-3.203 7.917,-4.615 z"
   id="path10"
   style="fill:#ff7f2a" />
	<path
   d="m 69.6,133.313 -17.914,-6.328 c -1.195,3.385 -2.258,6.869 -3.154,10.353 l 18.398,4.739 c 0.759,-2.95 1.658,-5.898 2.67,-8.764 z"
   id="path12"
   style="fill:#ff7f2a" />
	<path
   d="m 272.811,149.028 18.676,-3.489 c -0.66,-3.537 -1.482,-7.084 -2.447,-10.541 l -18.303,5.103 c 0.816,2.926 1.515,5.93 2.074,8.927 z"
   id="path14"
   style="fill:#ff7f2a" />
	<path
   d="m 63.654,172.08 -18.99,0.622 c 0.119,3.593 0.395,7.225 0.824,10.789 l 18.865,-2.27 c -0.365,-3.021 -0.599,-6.095 -0.699,-9.141 z"
   id="path16"
   style="fill:#ff7f2a" />
	<path
   d="m 268.506,93.526 -15.164,11.45 c 1.836,2.431 3.586,4.972 5.203,7.55 l 16.1,-10.092 c -1.909,-3.042 -3.975,-6.038 -6.139,-8.908 z"
   id="path18"
   style="fill:#ff7f2a" />
	<path
   d="m 262.145,218.262 16.748,8.973 c 1.699,-3.171 3.277,-6.453 4.691,-9.758 L 266.119,210 c -1.199,2.795 -2.535,5.576 -3.974,8.262 z"
   id="path20"
   style="fill:#ff7f2a" />
	<path
   d="m 157.533,63.606 -2.055,-18.887 c -3.574,0.388 -7.174,0.938 -10.699,1.639 l 3.697,18.638 c 2.985,-0.594 6.032,-1.059 9.057,-1.39 z"
   id="path22"
   style="fill:#ff7f2a" />
	<path
   d="m 274.547,171.713 c -0.094,3.055 -0.32,6.133 -0.672,9.151 l 18.871,2.21 c 0.416,-3.557 0.682,-7.182 0.793,-10.781 z"
   id="path24"
   style="fill:#ff7f2a" />
	<path
   d="m 187.701,64.626 c 3,0.533 6.01,1.204 8.945,1.995 l 4.943,-18.346 c -3.469,-0.934 -7.021,-1.726 -10.561,-2.355 z"
   id="path26"
   style="fill:#ff7f2a" />
	<path
   d="m 224.322,78.575 c 2.592,1.595 5.146,3.324 7.592,5.142 l 11.33,-15.252 c -2.889,-2.146 -5.902,-4.188 -8.961,-6.07 z"
   id="path28"
   style="fill:#ff7f2a" />
</g>
<g
   id="g32">
</g>
<g
   id="g34">
</g>
<g
   id="g36">
</g>
<g
   id="g38">
</g>
<g
   id="g40">
</g>
<g
   id="g42">
</g>
<g
   id="g44">
</g>
<g
   id="g46">
</g>
<g
   id="g48">
</g>
<g
   id="g50">
</g>
<g
   id="g52">
</g>
<g
   id="g54">
</g>
<g
   id="g56">
</g>
<g
   id="g58">
</g>
<g
   id="g60">
</g>
</svg>
